<svg width="210" height="56" viewBox="0 0 210 56" xmlns="http://www.w3.org/2000/svg" role="img" aria-label="ASTRA">
  <defs>
    <linearGradient id="aRing" x1="0%" y1="0%" x2="100%" y2="100%">
      <stop offset="0%" stop-color="#9d7bff"/>
      <stop offset="55%" stop-color="#6c8cff"/>
      <stop offset="100%" stop-color="#22d3ee"/>
    </linearGradient>
    <linearGradient id="aWord" x1="0%" y1="0%" x2="100%" y2="0%">
      <stop offset="0%" stop-color="#b69bff"/>
      <stop offset="100%" stop-color="#5ad1ff"/>
    </linearGradient>
    <radialGradient id="aCore" cx="50%" cy="42%" r="60%">
      <stop offset="0%" stop-color="#2a2658"/>
      <stop offset="100%" stop-color="#100e26"/>
    </radialGradient>
    <radialGradient id="aGlow" cx="50%" cy="50%" r="50%">
      <stop offset="0%" stop-color="#7c5cff" stop-opacity="0.55"/>
      <stop offset="100%" stop-color="#7c5cff" stop-opacity="0"/>
    </radialGradient>
    <clipPath id="aDisc"><circle cx="28" cy="28" r="21"/></clipPath>
  </defs>

  <circle cx="28" cy="28" r="30" fill="url(#aGlow)"/>

  <g clip-path="url(#aDisc)">
    <circle cx="28" cy="28" r="21" fill="url(#aCore)"/>
    <circle cx="20" cy="19" r="0.9" fill="#ffffff" opacity="0.9"/>
    <circle cx="36" cy="22" r="0.7" fill="#9d7bff" opacity="0.9"/>
    <circle cx="33" cy="37" r="0.8" fill="#5ad1ff" opacity="0.8"/>
    <circle cx="19" cy="34" r="0.6" fill="#ffffff" opacity="0.7"/>
    <ellipse cx="28" cy="28" rx="20" ry="7" fill="none" stroke="#5ad1ff" stroke-width="0.8" opacity="0.35" transform="rotate(-22 28 28)"/>
  </g>

  <circle cx="28" cy="28" r="21" fill="none" stroke="url(#aRing)" stroke-width="2.5"/>

  <polygon points="23,20 39,28 23,36" fill="url(#aWord)"/>
  <circle cx="46" cy="13" r="1.6" fill="#9d7bff"/>
  <circle cx="46" cy="13" r="3" fill="none" stroke="#9d7bff" stroke-width="0.6" opacity="0.5"/>

  <text x="60" y="37" font-size="27" font-family="'Bebas Neue','Arial Narrow',sans-serif" fill="url(#aWord)" letter-spacing="4" font-weight="700">ASTRA</text>
  <text x="61" y="48" font-size="7.5" font-family="Arial,sans-serif" fill="#7d78a8" letter-spacing="3.4">AI • KINO • MEDIA</text>
</svg>
